# xmcd
#
# Track frame offsets:
#	150
#	17993
#	33679
#	52041
#	69059
#	86662
#	105258
#	122663
#	139591
#	157434
#	173120
#	191482
#	208500
#	226103
#	244699
#	262104
#
# Disc length: 3718 seconds
#
# Revision: 1
# Processed by: cddbd v1.5.2PL0 Copyright (c) Steve Scherf et al.
# Submitted via: audiograbber 1.83.01
#
DISCID=db0e8410
DTITLE=Compulation - CB60396M
DYEAR=2009
DGENRE=Country
TTITLE0=Keith, Toby - That Don't Make Me A Bad Guy
TTITLE1=Strait, George - River Of Love
TTITLE2=Pickler, Kellie - Best Days Of Your Life
TTITLE3=Atkins, Rodney - It's America
TTITLE4=Rogers, Randy, Band - In My Arms Instead
TTITLE5=McBride, Martina - Ride
TTITLE6=Costner, Kevin and Modern West - Long Hot Night
TTITLE7=Emerson Drive - Belongs To You
TTITLE8=Keith, Toby - That Don't Make Me A Bad Guy (w/vocals)
TTITLE9=Strait, George - River Of Love (w/vocals)
TTITLE10=Pickler, Kellie - Best Days Of Your Life (w/vocals)
TTITLE11=Atkins, Rodney - It's America (w/vocals)
TTITLE12=Rogers, Randy, Band - In My Arms Instead (w/vocals)
TTITLE13=McBride, Martina - Ride (w/vocals)
TTITLE14=Costner, Kevin and Modern West - Long Hot Night (w/vocals)
TTITLE15=Emerson Drive - Belongs To You (w/vocals)
EXTD=
EXTT0=
EXTT1=
EXTT2=
EXTT3=
EXTT4=
EXTT5=
EXTT6=
EXTT7=
EXTT8=
EXTT9=
EXTT10=
EXTT11=
EXTT12=
EXTT13=
EXTT14=
EXTT15=
PLAYORDER=
